<svg width="140" height="50" viewBox="0 0 140 50" fill="none" xmlns="http://www.w3.org/2000/svg">
<g clip-path="url(#clip0_4_2)">
<mask id="mask0_4_2" style="mask-type:luminance" maskUnits="userSpaceOnUse" x="0" y="0" width="51" height="50">
<path d="M0.918533 0H50.2623V49.3438H0.918533V0Z" fill="white"/>
</mask>
<g mask="url(#mask0_4_2)">
<path d="M22.6321 0H28.554C29.2623 0 29.9706 0.0364584 30.679 0.104167C31.3873 0.171875 32.0904 0.276041 32.7883 0.416667C33.4862 0.557292 34.1737 0.729167 34.856 0.932292C35.5331 1.14063 36.205 1.38021 36.8612 1.65104C37.5175 1.92708 38.1581 2.22917 38.7883 2.5625C39.4133 2.90104 40.0227 3.26563 40.6165 3.66146C41.205 4.05208 41.7779 4.47917 42.3248 4.92708C42.8769 5.38021 43.4029 5.85417 43.9029 6.35937C44.4081 6.85937 44.8821 7.38542 45.3352 7.9375C45.7883 8.48958 46.2102 9.05729 46.606 9.65104C47.0019 10.2396 47.3665 10.849 47.6998 11.474C48.0331 12.1042 48.3404 12.7448 48.6112 13.401C48.8821 14.0573 49.1217 14.7292 49.33 15.4063C49.5331 16.0885 49.705 16.776 49.8456 17.474C49.9862 18.1719 50.0904 18.875 50.1581 19.5833C50.2258 20.2917 50.2623 21 50.2623 21.7083V27.6302C50.2623 28.3438 50.2258 29.0521 50.1581 29.7604C50.0904 30.4688 49.9862 31.1719 49.8456 31.8646C49.705 32.5625 49.5331 33.2552 49.33 33.9323C49.1217 34.6146 48.8821 35.2813 48.6112 35.9375C48.3404 36.599 48.0331 37.2396 47.6998 37.8646C47.3665 38.4948 47.0019 39.1042 46.606 39.6927C46.2102 40.2865 45.7883 40.8542 45.3352 41.4063C44.8821 41.9531 44.4081 42.4792 43.9029 42.9844C43.4029 43.4844 42.8769 43.9635 42.3248 44.4115C41.7779 44.8646 41.205 45.2865 40.6165 45.6823C40.0227 46.0781 39.4133 46.4427 38.7883 46.776C38.1581 47.1146 37.5175 47.4167 36.8612 47.6875C36.205 47.9635 35.5331 48.2031 34.856 48.4063C34.1737 48.6146 33.4862 48.7865 32.7883 48.9271C32.0904 49.0625 31.3873 49.1667 30.679 49.2396C29.9706 49.3073 29.2623 49.3438 28.554 49.3438H22.6321C21.9185 49.3438 21.2102 49.3073 20.5019 49.2396C19.7935 49.1667 19.0956 49.0625 18.3977 48.9271C17.6998 48.7865 17.0123 48.6146 16.33 48.4063C15.6477 48.2031 14.981 47.9635 14.3248 47.6875C13.6685 47.4167 13.0227 47.1146 12.3977 46.776C11.7727 46.4427 11.1633 46.0781 10.5696 45.6823C9.98103 45.2865 9.40812 44.8646 8.85603 44.4115C8.30916 43.9635 7.78312 43.4844 7.27791 42.9844C6.77791 42.4792 6.29874 41.9531 5.85083 41.4063C5.3977 40.8542 4.97583 40.2865 4.57999 39.6927C4.18416 39.1042 3.81958 38.4948 3.48624 37.8646C3.1477 37.2396 2.84562 36.599 2.57478 35.9375C2.30395 35.2813 2.06437 34.6146 1.85603 33.9323C1.6477 33.2552 1.47583 32.5625 1.34041 31.8646C1.19978 31.1719 1.09562 30.4688 1.02791 29.7604C0.954992 29.0521 0.918533 28.3438 0.918533 27.6302V21.7083C0.918533 21 0.954992 20.2917 1.02791 19.5833C1.09562 18.875 1.19978 18.1719 1.34041 17.474C1.47583 16.776 1.6477 16.0885 1.85603 15.4063C2.06437 14.7292 2.30395 14.0573 2.57478 13.401C2.84562 12.7448 3.1477 12.1042 3.48624 11.474C3.81958 10.849 4.18416 10.2396 4.57999 9.65104C4.97583 9.05729 5.3977 8.48958 5.85083 7.9375C6.29874 7.38542 6.77791 6.85937 7.27791 6.35937C7.78312 5.85417 8.30916 5.38021 8.85603 4.92708C9.40812 4.47917 9.98103 4.05208 10.5696 3.66146C11.1633 3.26563 11.7727 2.90104 12.3977 2.5625C13.0227 2.22917 13.6685 1.92708 14.3248 1.65104C14.981 1.38021 15.6477 1.14063 16.33 0.932292C17.0123 0.729167 17.6998 0.557292 18.3977 0.416667C19.0956 0.276041 19.7935 0.171875 20.5019 0.104167C21.2102 0.0364584 21.9185 0 22.6321 0Z" fill="#1A064F"/>
</g>
<path fill-rule="evenodd" clip-rule="evenodd" d="M13.7467 23.2292L15.231 24.0938V31.026L16.7102 31.8958L18.1894 32.7604L19.6685 33.6302L21.1477 34.4948L22.6269 35.3646L24.106 36.2292L25.5852 37.099L27.0644 36.2292L28.5487 35.3646L30.0279 34.4948L31.5071 33.6302L32.9862 32.7604L34.4654 31.8958L35.9446 31.026V24.0938L37.4237 23.2292V26.3646C37.304 26.4427 37.2206 26.5833 37.2206 26.7344C37.2206 26.8854 37.2883 27.0052 37.3977 27.0781L37.3456 27.2344L37.0487 28.1615H38.2362L37.9394 27.2344L37.8925 27.0781C37.9967 27.0052 38.0644 26.8958 38.0644 26.7344C38.0644 26.5677 37.9446 26.3854 37.7779 26.3281V23.0208L25.9498 16.0833L26.3092 15.875L38.1477 22.8073L38.9133 22.3594L40.3925 21.4948L38.9133 20.625L37.4342 19.7604L35.955 18.8906L34.4706 18.026L32.9915 17.1615L31.5123 16.2917L28.554 14.5625L27.0748 13.6927L25.5904 12.8281L24.1112 13.6979L21.1529 15.4271L19.6685 16.2969L16.7102 18.026L15.231 18.8958L13.7519 19.7604L12.2727 20.6302L10.7883 21.4948L12.2675 22.3594L13.7467 23.2292ZM24.1112 20.6302L25.5904 19.7604L27.0696 20.6302L28.554 21.4948L27.0696 22.3646L24.1112 24.0938V25.8333L25.5904 26.6979L27.0696 25.8333L28.554 24.9635L30.0331 24.0938L31.5123 23.2292L32.9915 22.3594L34.0071 21.7656L34.4706 21.4948L33.2154 20.7604L32.9915 20.6302L31.5123 19.7604L30.0331 18.8958L28.554 18.026L27.0748 17.1615L25.5956 16.2917L24.1112 17.1615L22.6321 18.026L21.1529 18.8958L19.6737 19.7604L18.1946 20.6302L16.7154 21.4948L18.1946 22.3646V29.2969L19.6737 30.1615L21.1529 31.0313L22.6321 31.8958L24.1112 32.7656L25.5904 33.6302L27.0696 32.7656L28.554 31.8958L30.0331 31.0313L31.5123 30.1615L32.9915 29.2969V25.8281L31.5123 26.6979L30.0331 27.5625L28.554 28.4323L27.0696 29.2969L25.5904 30.1667L22.6321 28.4271L21.1529 27.5625V22.3594L24.1112 20.6302Z" fill="white"/>
<path d="M64.4323 24.231V27.274H60.9643V32H56.8843V19.25H65.2483L64.7383 22.514H60.9643V24.231H64.4323ZM66.48 32V21.8H68.52L69.642 22.939C70.458 22.191 71.4666 21.7093 72.668 21.494L72.906 25.353C72.7473 25.353 72.5546 25.3757 72.328 25.421C72.1013 25.4663 71.869 25.523 71.631 25.591C71.4043 25.659 71.1946 25.744 71.002 25.846C70.8093 25.9367 70.662 26.0443 70.56 26.169V32H66.48ZM78.1113 28.532V29.246C78.3153 29.2687 78.5193 29.2857 78.7233 29.297C78.9273 29.3083 79.1313 29.314 79.3353 29.314C80.6046 29.314 81.8853 29.11 83.1773 28.702L83.6533 31.694C82.1233 32.102 80.6159 32.306 79.1313 32.306C77.2273 32.306 75.8503 31.864 75.0003 30.98C74.1503 30.0847 73.7253 28.7247 73.7253 26.9C73.7253 25.0753 74.1503 23.721 75.0003 22.837C75.8616 21.9417 77.2386 21.494 79.1313 21.494C80.0833 21.494 80.8766 21.5563 81.5113 21.681C82.1459 21.7943 82.6559 21.9927 83.0413 22.276C83.4379 22.548 83.7156 22.922 83.8743 23.398C84.0443 23.8627 84.1293 24.452 84.1293 25.166C84.1293 25.7553 84.0273 26.2653 83.8233 26.696C83.6306 27.1153 83.3019 27.461 82.8373 27.733C82.3726 28.005 81.7549 28.209 80.9843 28.345C80.2136 28.4697 79.2559 28.532 78.1113 28.532ZM78.1113 25.336V26.169H78.9443C79.4429 26.169 79.7999 26.118 80.0153 26.016C80.2419 25.914 80.3553 25.676 80.3553 25.302V24.469H79.5223C79.0236 24.469 78.6609 24.52 78.4343 24.622C78.2189 24.724 78.1113 24.962 78.1113 25.336ZM89.6328 28.532V29.246C89.8368 29.2687 90.0408 29.2857 90.2448 29.297C90.4488 29.3083 90.6528 29.314 90.8568 29.314C92.1261 29.314 93.4068 29.11 94.6988 28.702L95.1748 31.694C93.6448 32.102 92.1374 32.306 90.6528 32.306C88.7488 32.306 87.3718 31.864 86.5218 30.98C85.6718 30.0847 85.2468 28.7247 85.2468 26.9C85.2468 25.0753 85.6718 23.721 86.5218 22.837C87.3831 21.9417 88.7601 21.494 90.6528 21.494C91.6048 21.494 92.3981 21.5563 93.0328 21.681C93.6674 21.7943 94.1774 21.9927 94.5628 22.276C94.9594 22.548 95.2371 22.922 95.3958 23.398C95.5658 23.8627 95.6508 24.452 95.6508 25.166C95.6508 25.7553 95.5488 26.2653 95.3448 26.696C95.1521 27.1153 94.8234 27.461 94.3588 27.733C93.8941 28.005 93.2764 28.209 92.5058 28.345C91.7351 28.4697 90.7774 28.532 89.6328 28.532ZM89.6328 25.336V26.169H90.4658C90.9644 26.169 91.3214 26.118 91.5368 26.016C91.7634 25.914 91.8768 25.676 91.8768 25.302V24.469H91.0438C90.5451 24.469 90.1824 24.52 89.9558 24.622C89.7404 24.724 89.6328 24.962 89.6328 25.336ZM105.336 24.231V27.189H101.256V28.736H106.254V32H97.1763V19.25H106.152L105.642 22.514H101.256V24.231H105.336ZM118.082 18.434V32H116.042L115.158 31.15C114.58 31.9207 113.515 32.306 111.962 32.306C111.146 32.306 110.46 32.1587 109.905 31.864C109.35 31.5693 108.896 31.1783 108.545 30.691C108.205 30.1923 107.956 29.6143 107.797 28.957C107.65 28.2997 107.576 27.614 107.576 26.9C107.576 26.22 107.644 25.574 107.78 24.962C107.916 24.3387 108.143 23.7947 108.46 23.33C108.777 22.8653 109.197 22.497 109.718 22.225C110.239 21.9417 110.885 21.8 111.656 21.8H114.002V18.74L118.082 18.434ZM111.962 25.336V29.331H112.591C113.056 29.331 113.396 29.2913 113.611 29.212C113.838 29.1213 113.968 28.9173 114.002 28.6V24.469H113.373C112.874 24.469 112.512 24.52 112.285 24.622C112.07 24.724 111.962 24.962 111.962 25.336ZM119.916 21.8H123.996V29.331H124.625C125.123 29.331 125.48 29.28 125.696 29.178C125.922 29.076 126.036 28.838 126.036 28.464V21.8H130.116V32H128.076L126.886 30.844C126.07 31.8187 124.908 32.306 123.401 32.306C122.188 32.306 121.304 32.051 120.749 31.541C120.193 31.0197 119.916 30.1527 119.916 28.94V21.8Z" fill="#1A064F"/>
</g>
<defs>
<clipPath id="clip0_4_2">
<rect width="140" height="50" fill="white"/>
</clipPath>
</defs>
</svg>
